<?xml version="1.0" standalone="no"?>
<!DOCTYPE svg PUBLIC "-//W3C//DTD SVG 20010904//EN"
 "http://www.w3.org/TR/2001/REC-SVG-20010904/DTD/svg10.dtd">
<svg version="1.0" xmlns="http://www.w3.org/2000/svg"
 width="1551.000000pt" height="1551.000000pt" viewBox="0 0 1551.000000 1551.000000"
 preserveAspectRatio="xMidYMid meet">
<metadata>
Created by potrace 1.14, written by Peter Selinger 2001-2017
</metadata>
<g transform="translate(0.000000,1551.000000) scale(0.100000,-0.100000)"
fill="#000000" stroke="none">
<path d="M10180 15499 c-340 -42 -673 -154 -1230 -414 -733 -343 -1281 -688
-1900 -1196 -85 -69 -167 -137 -181 -150 -14 -13 -43 -39 -65 -58 -183 -158
-587 -555 -769 -756 -59 -66 -113 -124 -119 -130 -6 -5 -49 -55 -96 -110 -47
-55 -87 -102 -90 -105 -3 -3 -28 -32 -55 -65 -28 -33 -52 -62 -55 -65 -23 -21
-378 -478 -420 -541 -8 -12 -24 -34 -36 -48 -39 -49 -239 -334 -259 -369 -5
-9 -13 -19 -16 -22 -16 -13 -373 -566 -429 -665 -9 -16 -52 -88 -94 -158 -42
-71 -76 -130 -76 -133 0 -2 -11 -22 -24 -43 -67 -105 -479 -904 -486 -939 0
-4 -15 -36 -32 -72 -138 -293 -357 -848 -487 -1240 -77 -231 -197 -634 -215
-720 -3 -14 -12 -51 -21 -84 -16 -62 -91 -383 -99 -426 -2 -14 -7 -36 -10 -50
-3 -14 -8 -36 -10 -50 -3 -14 -12 -61 -21 -104 -17 -87 -17 -90 -40 -226 -36
-215 -45 -273 -60 -425 -3 -38 -8 -81 -10 -95 -13 -86 -20 -278 -20 -570 0
-339 5 -446 31 -665 4 -27 8 -63 9 -80 6 -58 36 -242 61 -365 122 -611 363
-1159 683 -1555 84 -104 254 -272 361 -357 349 -277 618 -380 1185 -454 170
-22 465 -26 615 -9 292 33 634 114 933 221 214 76 567 236 714 323 l52 31 54
-88 c29 -48 56 -94 60 -102 3 -8 33 -58 67 -110 33 -52 67 -108 76 -125 36
-65 307 -468 404 -600 90 -122 268 -350 303 -387 7 -7 39 -45 72 -83 99 -116
262 -283 409 -420 94 -88 375 -305 395 -305 5 0 11 -4 13 -8 2 -4 28 -23 58
-41 216 -133 414 -217 635 -273 22 -5 92 -11 155 -12 310 -5 567 116 658 311
22 47 27 72 27 133 -1 194 -98 322 -475 625 -239 192 -550 513 -806 830 -247
307 -623 840 -878 1245 -43 69 -91 144 -107 167 l-28 42 67 58 c37 32 72 62
78 68 6 5 43 39 84 75 156 139 234 213 470 450 284 284 454 466 632 675 14 17
45 53 69 81 415 482 880 1127 1236 1714 180 298 289 486 383 665 29 55 56 105
61 110 15 20 331 658 334 675 0 3 11 28 24 55 56 122 183 423 235 560 32 83
66 171 77 196 21 52 167 496 198 604 11 39 30 101 41 139 11 37 22 78 24 90 2
11 9 41 16 66 7 25 13 52 15 60 2 8 12 53 23 100 12 47 24 101 28 120 4 19 8
37 9 40 2 6 13 62 36 175 11 55 13 69 30 170 6 39 13 80 15 93 9 49 13 80 19
142 4 36 9 67 10 70 2 3 6 39 10 80 4 41 8 82 10 90 19 102 28 706 13 895 -6
80 -38 320 -53 400 -47 254 -167 583 -279 769 -20 32 -36 60 -36 62 0 4 -46
71 -100 146 -77 107 -271 305 -390 399 -36 28 -74 58 -85 68 -17 14 -120 83
-220 147 -131 83 -422 201 -564 229 -132 25 -211 32 -331 30 -129 -3 -278 -26
-343 -54 -52 -22 -113 -73 -131 -110 -27 -52 -37 -146 -24 -231 32 -210 254
-532 458 -665 96 -63 254 -140 429 -210 131 -53 178 -81 242 -145 88 -87 130
-188 155 -370 3 -25 8 -54 10 -65 24 -123 24 -575 -1 -770 -2 -16 -7 -55 -10
-85 -11 -100 -62 -397 -89 -516 -2 -12 -7 -39 -10 -60 -4 -22 -8 -46 -11 -54
-2 -8 -6 -26 -9 -40 -2 -14 -18 -83 -36 -155 -17 -71 -33 -139 -35 -149 -10
-48 -80 -284 -121 -411 -139 -428 -299 -811 -542 -1305 -127 -255 -199 -393
-343 -647 -54 -97 -206 -357 -221 -381 -10 -15 -22 -36 -28 -47 -6 -11 -23
-40 -38 -65 -15 -25 -36 -60 -47 -78 -21 -35 -163 -265 -273 -442 -36 -58 -83
-131 -104 -162 -21 -31 -38 -59 -38 -61 0 -7 -289 -438 -400 -597 -88 -125
-455 -619 -469 -630 -3 -3 -24 -27 -46 -55 -21 -27 -42 -52 -45 -55 -3 -3 -34
-41 -70 -85 -66 -83 -221 -262 -300 -350 -163 -180 -360 -385 -370 -385 -4 0
-28 37 -53 83 -26 45 -58 101 -72 124 -26 45 -243 423 -277 483 -11 19 -55 96
-98 170 -43 75 -90 158 -106 185 -15 28 -64 115 -109 195 -45 80 -99 177 -120
215 -21 39 -50 93 -65 120 -104 191 -192 360 -283 540 -83 165 -257 525 -257
531 0 3 -17 41 -38 87 -21 45 -51 112 -67 149 -15 37 -43 85 -60 106 -126 146
-459 160 -589 23 -35 -36 -66 -122 -59 -165 6 -39 15 -69 103 -346 71 -223
160 -506 164 -525 1 -5 15 -50 30 -100 15 -49 41 -135 57 -190 17 -55 34 -111
39 -125 5 -14 41 -131 80 -260 39 -129 75 -244 80 -255 5 -11 40 -118 79 -237
75 -232 201 -595 258 -743 68 -175 185 -470 198 -500 7 -16 34 -79 60 -140 26
-60 65 -148 87 -195 32 -68 37 -86 26 -95 -158 -124 -364 -266 -536 -372 -96
-58 -392 -210 -467 -240 -108 -42 -281 -97 -340 -109 -134 -26 -219 -37 -295
-37 -604 3 -1004 466 -1161 1347 -34 194 -44 330 -43 616 0 208 8 384 19 460
2 14 6 57 10 95 3 39 8 81 10 95 2 14 6 50 10 81 3 31 8 67 10 80 3 12 7 45
10 73 3 28 8 60 10 71 3 11 7 38 10 60 3 22 7 47 10 55 2 8 6 35 9 60 3 25 8
56 11 70 3 14 8 41 11 60 3 19 14 85 25 145 11 61 22 119 24 130 12 75 20 112
42 210 13 61 33 146 45 190 11 44 21 87 23 95 31 137 195 655 260 820 7 19 37
95 65 168 57 150 137 345 181 440 16 35 29 65 29 67 0 3 14 34 30 70 17 36 44
95 61 133 49 105 252 514 322 647 91 174 253 467 298 540 11 17 22 37 26 45 6
12 221 372 266 445 70 113 202 312 301 453 66 96 128 184 136 195 107 155 456
593 587 737 17 19 40 44 50 56 108 125 207 229 433 454 146 146 283 281 305
301 22 19 65 57 95 84 173 155 295 257 487 407 402 316 664 490 1083 720 135
74 601 308 613 308 3 0 52 23 110 50 58 28 108 50 111 50 2 0 33 13 68 29 35
16 128 59 208 96 80 37 165 75 190 85 25 9 88 35 140 57 l95 39 33 -22 c54
-37 142 -66 209 -69 181 -9 287 151 282 425 -2 118 -26 218 -79 324 -42 83
-62 111 -153 205 -130 136 -314 237 -504 276 -79 16 -316 19 -433 4z"/>
</g>
</svg>
